<svg width="54px" height="54px" viewBox="0 0 54 54" version="1.1" xmlns="http://www.w3.org/2000/svg" xmlns:xlink="http://www.w3.org/1999/xlink">
    <defs>
        <path d="M222.164101,101.553333 C218.664572,101.553333 215.829429,98.6939153 215.829429,95.165 C215.829429,91.6360847 218.664572,88.7766667 222.164101,88.7766667 C225.66363,88.7766667 228.50005,91.6360847 228.50005,95.165 C228.50005,98.6939153 225.66363,101.553333 222.164101,101.553333 L222.164101,101.553333 Z M240.061655,99.6828293 L237.093636,97.955424 C237.259732,97.0482807 237.369612,96.1219723 237.369612,95.165 C237.369612,94.2093053 237.259732,93.2817193 237.093636,92.374576 L240.061655,90.6471707 C241.274161,89.9418987 241.688125,88.3780347 240.987964,87.1565853 L238.454351,82.730748 C237.755467,81.5092987 236.20438,81.0889463 234.993152,81.795496 L231.994468,83.539511 C230.594145,82.3385043 229.002173,81.3559787 227.232604,80.7235337 L227.232604,78.5553333 C227.232604,77.1447893 226.098036,76 224.697714,76 L219.630488,76 C218.230165,76 217.095597,77.1447893 217.095597,78.5553333 L217.095597,80.7235337 C215.326029,81.3559787 213.734056,82.3385043 212.333733,83.539511 L209.33505,81.795496 C208.123822,81.0889463 206.572734,81.5092987 205.873851,82.730748 L203.340238,87.1565853 C202.640076,88.3780347 203.055318,89.9418987 204.266546,90.6471707 L207.234566,92.374576 C207.068469,93.2817193 206.95859,94.2093053 206.95859,95.165 C206.95859,96.1219723 207.068469,97.0482807 207.234566,97.955424 L204.266546,99.6828293 C203.055318,100.388101 202.640076,101.951965 203.340238,103.173415 L205.873851,107.599252 C206.572734,108.820701 208.123822,109.241054 209.33505,108.534504 L212.333733,106.790489 C213.734056,107.991496 215.326029,108.975299 217.095597,109.606466 L217.095597,111.774667 C217.095597,113.185211 218.230165,114.33 219.630488,114.33 L224.697714,114.33 C226.098036,114.33 227.232604,113.185211 227.232604,111.774667 L227.232604,109.606466 C229.002173,108.975299 230.594145,107.991496 231.994468,106.790489 L234.993152,108.534504 C236.20438,109.241054 237.755467,108.820701 238.454351,107.599252 L240.987964,103.173415 C241.688125,101.951965 241.274161,100.388101 240.061655,99.6828293 L240.061655,99.6828293 Z M222.164101,91.332 C220.064894,91.332 218.363042,93.049184 218.363042,95.165 C218.363042,97.2820937 220.064894,98.998 222.164101,98.998 C224.263307,98.998 225.965159,97.2820937 225.965159,95.165 C225.965159,93.049184 224.263307,91.332 222.164101,91.332 L222.164101,91.332 Z" id="path-1"></path>
        <filter x="-36.5%" y="-26.1%" width="173.1%" height="173.0%" filterUnits="objectBoundingBox" id="filter-2">
            <feOffset dx="0" dy="4" in="SourceAlpha" result="shadowOffsetOuter1"></feOffset>
            <feGaussianBlur stdDeviation="4" in="shadowOffsetOuter1" result="shadowBlurOuter1"></feGaussianBlur>
            <feComposite in="shadowBlurOuter1" in2="SourceAlpha" operator="out" result="shadowBlurOuter1"></feComposite>
            <feColorMatrix values="0 0 0 0 0   0 0 0 0 0   0 0 0 0 0  0 0 0 0.5 0" type="matrix" in="shadowBlurOuter1"></feColorMatrix>
        </filter>
    </defs>
    <g id="Page-1" stroke="none" stroke-width="1" fill="none" fill-rule="evenodd">
        <g id="Artboard" transform="translate(-195.000000, -72.000000)">
            <g id="Fill-171">
                <use fill="black" fill-opacity="1" filter="url(#filter-2)" xlink:href="#path-1"></use>
                <use fill-opacity="0.75" fill="#FFFFFE" fill-rule="evenodd" xlink:href="#path-1"></use>
            </g>
        </g>
    </g>
</svg>